<?xml version="1.0" encoding="UTF-8"?> <svg xmlns="http://www.w3.org/2000/svg" width="157" height="24" viewBox="0 0 157 24" fill="none"><g clip-path="url(#clip0_4606_741)"><path d="M150.15 0H134.27V13.47L139.95 19.13H156.06V5.9L150.15 0Z" fill="#132738"></path><path d="M1.95 23.6098L0 11.0498H2.89L4.23999 21.6498H4.67L6.61 11.0498H11.31L13.19 21.6498H13.63L14.97 11.0498H17.87L15.89 23.6098H11.03L9.14999 13.0098H8.72L6.81 23.6098H1.95Z" fill="#132738"></path><path d="M27.04 23.9898C25.8825 24.0176 24.7378 23.7418 23.72 23.1898C22.7705 22.6689 21.9924 21.8839 21.48 20.9298C20.927 19.8763 20.6517 18.6993 20.68 17.5098V17.1998C20.6495 16.0081 20.9213 14.8281 21.47 13.7698C21.9747 12.8252 22.7423 12.0472 23.68 11.5298C24.6849 10.9807 25.815 10.7016 26.96 10.7198C28.0804 10.6947 29.1865 10.9747 30.16 11.5298C31.0779 12.05 31.8222 12.8291 32.3 13.7698C32.8289 14.8163 33.0901 15.9776 33.06 17.1498V18.1498H23.63C23.6277 18.5941 23.7198 19.0338 23.9 19.4398C24.0782 19.8498 24.3405 20.2177 24.67 20.5198C25.3427 21.1123 26.2138 21.43 27.11 21.4098C27.8603 21.4776 28.6098 21.2715 29.22 20.8298C29.6469 20.4298 29.9872 19.9465 30.22 19.4098L32.64 20.6598C32.3666 21.1849 32.0308 21.6751 31.64 22.1198C31.1412 22.679 30.5316 23.1285 29.85 23.4398C28.9669 23.833 28.0062 24.0211 27.04 23.9898ZM23.65 15.9898H30.09C30.0714 15.6145 29.9761 15.2469 29.81 14.9098C29.6514 14.564 29.4193 14.2569 29.13 14.0098C28.5132 13.4999 27.7296 13.2363 26.93 13.2698C26.1375 13.2105 25.353 13.4608 24.7413 13.9681C24.1296 14.4754 23.7384 15.2001 23.65 15.9898Z" fill="#132738"></path><path d="M56.76 23.9902C55.6024 24.018 54.4578 23.7422 53.44 23.1902C52.4905 22.6693 51.7124 21.8843 51.2 20.9302C50.6574 19.874 50.3924 18.697 50.43 17.5102V17.2002C50.4007 16.0098 50.6688 14.8309 51.21 13.7702C51.7215 12.8273 52.4917 12.0501 53.43 11.5302C54.434 10.9789 55.5647 10.6996 56.71 10.7202C57.8302 10.6961 58.9361 10.976 59.91 11.5302C60.8227 12.0538 61.5629 12.8323 62.04 13.7702C62.5673 14.8176 62.8316 15.9777 62.81 17.1502V18.1502H53.31C53.3001 18.5941 53.3889 19.0347 53.57 19.4402C53.7434 19.8503 54.0025 20.2185 54.33 20.5202C55.0027 21.1127 55.8738 21.4304 56.77 21.4102C57.5271 21.4848 58.2852 21.2783 58.9 20.8302C59.3252 20.4287 59.6653 19.9458 59.9 19.4102L62.31 20.6602C62.0335 21.1834 61.698 21.6733 61.31 22.1202C60.8112 22.6794 60.2016 23.1289 59.52 23.4402C58.6528 23.828 57.7096 24.0159 56.76 23.9902ZM53.37 15.9902H59.81C59.7914 15.6148 59.6961 15.2473 59.53 14.9102C59.3714 14.5644 59.1393 14.2572 58.85 14.0102C58.2332 13.5003 57.4495 13.2367 56.65 13.2702C55.8575 13.2109 55.073 13.4612 54.4613 13.9685C53.8495 14.4757 53.4584 15.2004 53.37 15.9902Z" fill="#132738"></path><path d="M71.65 23.9899C70.5044 24.0105 69.3712 23.7495 68.35 23.2299C67.3799 22.7286 66.5719 21.9623 66.02 21.0199C65.433 19.9559 65.1396 18.7548 65.17 17.5399V17.18C65.1372 15.9648 65.4307 14.7631 66.02 13.6999C66.5682 12.7522 67.3769 11.9817 68.35 11.4799C69.3732 10.9656 70.505 10.705 71.65 10.7199C72.7158 10.6903 73.7737 10.9094 74.74 11.3599C75.5703 11.7532 76.2863 12.3522 76.82 13.0999C77.3378 13.8397 77.6798 14.6879 77.82 15.5799L75 16.1599C74.9359 15.6594 74.7727 15.1767 74.52 14.7399C74.256 14.3123 73.8788 13.9662 73.43 13.7399C72.9013 13.4708 72.313 13.3401 71.72 13.3599C71.0694 13.3449 70.4257 13.4964 69.85 13.7999C69.292 14.106 68.839 14.5729 68.55 15.1399C68.2299 15.8038 68.069 16.5331 68.08 17.2699V17.5299C68.0601 18.2645 68.2215 18.9926 68.55 19.6499C68.8482 20.2077 69.2992 20.6691 69.85 20.9799C70.4237 21.2909 71.0676 21.4493 71.72 21.4399C72.1455 21.4727 72.5732 21.4187 72.9771 21.2812C73.3811 21.1437 73.7529 20.9255 74.07 20.6399C74.6147 20.0736 74.9649 19.3486 75.07 18.57L77.89 19.2299C77.6912 20.098 77.3206 20.9174 76.8 21.6399C76.2588 22.3833 75.545 22.9839 74.72 23.3899C73.7563 23.823 72.7058 24.0283 71.65 23.9899Z" fill="#132738"></path><path d="M97.54 23.8398C96.64 23.8623 95.7511 23.6375 94.97 23.1898C94.2236 22.7661 93.6211 22.1288 93.24 21.3598C92.8198 20.5015 92.6106 19.5553 92.63 18.5998V11.0798H95.53V18.3698C95.4911 18.7785 95.5388 19.1908 95.67 19.5798C95.8135 19.9619 96.0309 20.3119 96.31 20.6098C96.8041 20.9694 97.3794 21.2014 97.9848 21.2851C98.5901 21.3689 99.2068 21.3018 99.78 21.0898C100.202 20.9121 100.58 20.6461 100.89 20.3098C101.549 19.4881 101.88 18.4514 101.82 17.3998V11.0498H104.72V23.6098H101.87V21.8298H101.44C101.155 22.3655 100.739 22.8197 100.23 23.1498C99.4282 23.657 98.4869 23.8985 97.54 23.8398Z" fill="#132738"></path><path d="M121.81 23.6099C121.47 23.6171 121.131 23.5629 120.81 23.4499C120.475 23.3228 120.168 23.1289 119.91 22.8799C119.661 22.618 119.467 22.3085 119.34 21.9699C119.221 21.6299 119.17 21.2697 119.19 20.9099V13.4599H115.91V11.0499H119.19V6.6499H122.11V11.0499H125.72V13.4599H122.11V20.4599C122.11 20.9699 122.34 21.2199 122.82 21.2199H125.31V23.6099H121.81Z" fill="#132738"></path><path d="M43.04 23.6098H40.04V13.6098C40.0396 13.2879 40.1007 12.9689 40.22 12.6698C40.4904 12.0425 40.9969 11.5467 41.63 11.2898C41.9479 11.1612 42.2871 11.0933 42.63 11.0898H48.1V14.0898H43.1L43.04 23.6098Z" fill="#132738"></path><path d="M84.57 23.6098H81.57V13.6098C81.5731 13.2873 81.6376 12.9683 81.76 12.6698C81.8842 12.3695 82.0679 12.0974 82.3 11.8698C82.5451 11.6164 82.8418 11.4186 83.17 11.2898C83.4878 11.161 83.8271 11.0931 84.17 11.0898H89.63V14.0898H84.63L84.57 23.6098Z" fill="#132738"></path><path d="M133.15 18L130.31 20.82L133.14 23.64L135.96 20.82L133.15 18Z" fill="#132738"></path><path d="M112.31 6.68018H109.38V11.0802L112.31 8.15016V6.68018Z" fill="#132738"></path><path d="M109.38 11.0801V23.6101H112.31V13.9701L109.38 11.0801Z" fill="#132738"></path><path d="M152.59 6H143.81V8.21001H147.22V15.74H149.63V8.21001H152.81V6H152.59Z" fill="white"></path><path d="M142.86 3H140.81V6.75L141.14 6.47L142.98 4.94L143.06 4.86999V3H142.86Z" fill="white"></path><path d="M143.01 9.03999L141.16 7.11L140.81 6.75V15.75H143.06V9.11L143.01 9.03999Z" fill="white"></path></g><defs><clipPath id="clip0_4606_741"><rect width="156.06" height="24" fill="white"></rect></clipPath></defs></svg> 